<?xml version="1.0" encoding="UTF-8"?>
<svg id="Version_One" data-name="Version One" xmlns="http://www.w3.org/2000/svg" viewBox="0 0 1617.52 2233.04">
  <rect x="145.03" y="1045.06" width="121.19" height="971.23" fill="#d7cfce"/>
  <path d="m214.92,973.97h-118.2v24.16c18.91,6.81,21.14,22.41,21.12,32.69-.01,4.88.07,9.69.07,9.69,10.04,0,11.15,10.11,11.15,16.73,0,0,8.92,2.23,8.92,11.15v66.91h135.3v-66.91c0-8.92,8.92-11.15,8.92-11.15,0-6.62,1.12-16.73,11.15-16.73,0,0,.08-4.81.07-9.69-.02-10.28,2.21-25.88,21.12-32.69v-24.16h-99.62Z" fill="#d7cfce"/>
  <rect x="1351.3" y="1045.06" width="121.19" height="971.23" transform="translate(2823.78 3061.35) rotate(-180)" fill="#d7cfce"/>
  <path d="m1402.6,973.97h18.59s99.62,0,99.62,0v24.16c-18.91,6.81-21.14,22.41-21.12,32.69.01,4.88-.07,9.69-.07,9.69-10.04,0-11.15,10.11-11.15,16.73,0,0-8.92,2.23-8.92,11.15s0,66.91,0,66.91h-58.36s-18.59,0-18.59,0h-58.36s0-57.99,0-66.91-8.92-11.15-8.92-11.15c0-6.62-1.12-16.73-11.15-16.73,0,0-.08-4.81-.07-9.69.02-10.28-2.21-25.88-21.12-32.69v-24.16h99.62Z" fill="#d7cfce"/>
  <path d="m1402.6,2000.36h18.59s99.62,0,99.62,0v24.16c-18.91,6.81-21.14,22.41-21.12,32.69.01,4.88-.07,9.69-.07,9.69-10.04,0-11.15,10.11-11.15,16.73,0,0-8.92,2.23-8.92,11.15s0,138.27,0,138.27h-58.36s-18.59,0-18.59,0h-58.36s0-129.35,0-138.27-8.92-11.15-8.92-11.15c0-6.62-1.12-16.73-11.15-16.73,0,0-.08-4.81-.07-9.69.02-10.28-2.21-25.88-21.12-32.69v-24.16h99.62Z" fill="#d7cfce"/>
  <path d="m196.34,2000.36h18.59s99.62,0,99.62,0v24.16c-18.91,6.81-21.14,22.41-21.12,32.69.01,4.88-.07,9.69-.07,9.69-10.04,0-11.15,10.11-11.15,16.73,0,0-8.92,2.23-8.92,11.15s0,138.27,0,138.27h-58.36s-18.59,0-18.59,0h-58.36s0-129.35,0-138.27-8.92-11.15-8.92-11.15c0-6.62-1.12-16.73-11.15-16.73,0,0-.08-4.81-.07-9.69.02-10.28-2.21-25.88-21.12-32.69v-24.16h99.62Z" fill="#d7cfce"/>
  <path d="m1500.04,852.6c0-381.78-309.5-691.28-691.28-691.28-381.78,0-691.28,309.5-691.28,691.28h0v126.21h175.14v-126.21c0-285.06,231.08-516.14,516.14-516.14s516.14,231.08,516.14,516.14v126.21h175.14v-126.21h0Z" fill="#d7cfce"/>
  <g>
    <path d="m588.5,385.69l-70.9-160.25c-37.37,17.38-72.93,38.01-106.32,61.51l103.3,141.49c23.31-16.2,48.02-30.52,73.92-42.75Z" fill="#1e2939"/>
    <path d="m140.58,674.76l170.11,41.99c7.55-27.75,17.36-54.57,29.22-80.25l-157.31-77.18c-17.27,36.82-31.39,75.41-42.01,115.43Z" fill="#1e2939"/>
    <path d="m1323.15,809.91c1.15,14.08,1.75,28.31,1.75,42.69v39.11h175.14v-39.11c0-20.69-.91-41.18-2.69-61.41l-174.2,18.72Z" fill="#1e2939"/>
    <path d="m749.66,163.82c-41.48,3.51-81.92,10.68-120.99,21.19l48.69,168.33c27.22-7.15,55.32-12.13,84.11-14.74l-11.81-174.78Z" fill="#1e2939"/>
    <path d="m241.79,457.02l145.47,97.63c16.5-23.29,34.88-45.16,54.91-65.37h0l-121.4-126.3c-29.01,28.91-55.45,60.38-78.98,94.04Z" fill="#1e2939"/>
    <path d="m1476.94,674.76c-10.62-40.02-24.74-78.61-42.01-115.43h0s-157.31,77.18-157.31,77.18c11.86,25.68,21.67,52.5,29.22,80.25h0s170.11-41.99,170.11-41.99Z" fill="#1e2939"/>
    <path d="m294.37,809.91l-174.2-18.72c-1.78,20.23-2.69,40.71-2.69,61.41v39.11h175.14v-39.11c0-14.38.6-28.61,1.75-42.69Z" fill="#1e2939"/>
    <path d="m988.84,185.01c-39.07-10.51-79.51-17.68-120.99-21.19h0l-11.81,174.78c28.78,2.61,56.88,7.6,84.11,14.74l48.69-168.33Z" fill="#1e2939"/>
    <path d="m1375.73,457.02c-23.53-33.66-49.98-65.14-78.98-94.04l-121.4,126.3c20.04,20.22,38.42,42.08,54.91,65.37l145.47-97.63Z" fill="#1e2939"/>
    <path d="m1206.24,286.96c-33.39-23.5-68.94-44.13-106.32-61.51l-70.9,160.25c25.89,12.24,50.6,26.56,73.91,42.75l103.3-141.49Z" fill="#1e2939"/>
  </g>
</svg>