<?xml version="1.0" encoding="UTF-8"?>
<svg id="Version_Two" data-name="Version Two" xmlns="http://www.w3.org/2000/svg" viewBox="0 0 1562.57 923.92">
  <path d="m1472.57,744.5c0-381.78-309.5-691.28-691.28-691.28-381.78,0-691.28,309.5-691.28,691.28h0v126.21h175.14v-126.21c0-285.06,231.08-516.14,516.14-516.14s516.14,231.08,516.14,516.14v126.21h175.14v-126.21h0Z" fill="#d7cfce"/>
  <g>
    <path d="m561.02,277.6l-70.9-160.25c-37.37,17.38-72.93,38.01-106.32,61.51l103.3,141.49c23.31-16.2,48.02-30.52,73.92-42.75Z" fill="#1e2939"/>
    <path d="m113.11,566.66l170.11,41.99c7.55-27.75,17.36-54.57,29.22-80.25l-157.31-77.18c-17.27,36.82-31.39,75.41-42.01,115.43Z" fill="#1e2939"/>
    <path d="m1295.67,701.81c1.15,14.08,1.75,28.31,1.75,42.69v39.11h175.14v-39.11c0-20.69-.91-41.18-2.69-61.41l-174.2,18.72Z" fill="#1e2939"/>
    <path d="m722.19,55.72c-41.48,3.51-81.92,10.68-120.99,21.19l48.69,168.33c27.22-7.15,55.32-12.13,84.11-14.74l-11.81-174.78Z" fill="#1e2939"/>
    <path d="m214.32,348.92l145.47,97.63c16.5-23.29,34.88-45.16,54.91-65.37h0l-121.4-126.3c-29.01,28.91-55.45,60.38-78.98,94.04Z" fill="#1e2939"/>
    <path d="m1449.47,566.66c-10.62-40.02-24.74-78.61-42.01-115.43h0s-157.31,77.18-157.31,77.18c11.86,25.68,21.67,52.5,29.22,80.25h0s170.11-41.99,170.11-41.99Z" fill="#1e2939"/>
    <path d="m266.9,701.81l-174.2-18.72c-1.78,20.23-2.69,40.71-2.69,61.41v39.11h175.14v-39.11c0-14.38.6-28.61,1.75-42.69Z" fill="#1e2939"/>
    <path d="m961.37,76.91c-39.07-10.51-79.51-17.68-120.99-21.19h0l-11.81,174.78c28.78,2.61,56.88,7.6,84.11,14.74l48.69-168.33Z" fill="#1e2939"/>
    <path d="m1348.26,348.92c-23.53-33.66-49.98-65.14-78.98-94.04l-121.4,126.3c20.04,20.22,38.42,42.08,54.91,65.37l145.47-97.63Z" fill="#1e2939"/>
    <path d="m1178.76,178.86c-33.39-23.5-68.94-44.13-106.32-61.51l-70.9,160.25c25.89,12.24,50.6,26.56,73.91,42.75l103.3-141.49Z" fill="#1e2939"/>
  </g>
</svg>